<svg id="Capa_1" data-name="Capa 1" xmlns="http://www.w3.org/2000/svg" viewBox="0 0 1042.25 80.96"><defs><style>.cls-1{fill:#fff;}</style></defs><path class="cls-1" d="M82,101.09H71.65l-41.56-63v63H19.75V21.83H30.09L71.65,84.74V21.83H82Z" transform="translate(-19.75 -20.92)"/><path class="cls-1" d="M109.91,21.94v79.15H99.58V21.94Z" transform="translate(-19.75 -20.92)"/><path class="cls-1" d="M128.87,40.62a37.88,37.88,0,0,1,14.25-14.47,39.23,39.23,0,0,1,20-5.23q12.94,0,22.6,6.25a35.8,35.8,0,0,1,14.08,17.71H187.46a24.75,24.75,0,0,0-9.48-11A27.36,27.36,0,0,0,163.16,30a28.8,28.8,0,0,0-14.87,3.86,26.9,26.9,0,0,0-10.33,11,35.15,35.15,0,0,0-3.75,16.64A34.86,34.86,0,0,0,138,78a26.93,26.93,0,0,0,10.33,11,28.89,28.89,0,0,0,14.87,3.86A27.69,27.69,0,0,0,178,89,24.38,24.38,0,0,0,187.46,78h12.38a35.51,35.51,0,0,1-14.08,17.54q-9.64,6.19-22.6,6.19a39.58,39.58,0,0,1-20-5.17,37.59,37.59,0,0,1-14.25-14.36,41.35,41.35,0,0,1-5.22-20.78A41.68,41.68,0,0,1,128.87,40.62Z" transform="translate(-19.75 -20.92)"/><path class="cls-1" d="M231,96.72A37.82,37.82,0,0,1,216.59,82.3a41.31,41.31,0,0,1-5.28-20.84,41.31,41.31,0,0,1,5.28-20.84A37.82,37.82,0,0,1,231,26.2a41.94,41.94,0,0,1,40.31,0,37.49,37.49,0,0,1,14.31,14.37,41.55,41.55,0,0,1,5.22,20.89,41.55,41.55,0,0,1-5.22,20.89,37.56,37.56,0,0,1-14.31,14.37,41.94,41.94,0,0,1-40.31,0Zm35-7.67a27.16,27.16,0,0,0,10.45-11,34.88,34.88,0,0,0,3.8-16.58,34.81,34.81,0,0,0-3.8-16.64,27.37,27.37,0,0,0-10.39-11,31,31,0,0,0-30,0,27.37,27.37,0,0,0-10.39,11,34.7,34.7,0,0,0-3.8,16.64A34.76,34.76,0,0,0,225.67,78a27.16,27.16,0,0,0,10.45,11,30.8,30.8,0,0,0,29.86,0Z" transform="translate(-19.75 -20.92)"/><path class="cls-1" d="M314.75,92.69h27.71v8.4h-38V21.94h10.33Z" transform="translate(-19.75 -20.92)"/><path class="cls-1" d="M400.25,83.49H365.73l-6.36,17.6h-10.9L377.09,22.4H389l28.5,78.69h-10.9Zm-2.95-8.41L383,35.12l-14.3,40Z" transform="translate(-19.75 -20.92)"/><path class="cls-1" d="M441.07,99.1a23.41,23.41,0,0,1-9.71-7.72A19.79,19.79,0,0,1,427.73,80h11a14.5,14.5,0,0,0,4.59,9.37q4,3.8,11.76,3.8,7.38,0,11.63-3.69A12,12,0,0,0,471,80a10.73,10.73,0,0,0-2.5-7.38,16,16,0,0,0-6.24-4.32,99.93,99.93,0,0,0-10.11-3.18A87.62,87.62,0,0,1,439.6,61a20.22,20.22,0,0,1-8.07-6.41q-3.34-4.37-3.35-11.75a20.32,20.32,0,0,1,3.3-11.47,21.39,21.39,0,0,1,9.25-7.72,32.56,32.56,0,0,1,13.68-2.73q11.13,0,18.23,5.57a20.53,20.53,0,0,1,8,14.76H469.29a12.27,12.27,0,0,0-4.77-8q-4.2-3.47-11.13-3.46a16.16,16.16,0,0,0-10.56,3.35q-4.08,3.34-4.08,9.37a10.16,10.16,0,0,0,2.44,7,15.79,15.79,0,0,0,6,4.14q3.58,1.43,10.05,3.24a93.06,93.06,0,0,1,12.61,4.26A20.93,20.93,0,0,1,478,67.65q3.41,4.36,3.41,11.86a20.77,20.77,0,0,1-3.07,10.9,22.49,22.49,0,0,1-9.08,8.29,30,30,0,0,1-14.19,3.18A33.79,33.79,0,0,1,441.07,99.1Z" transform="translate(-19.75 -20.92)"/><path class="cls-1" d="M542.75,96.72A37.88,37.88,0,0,1,528.39,82.3a41.31,41.31,0,0,1-5.28-20.84,41.31,41.31,0,0,1,5.28-20.84A37.88,37.88,0,0,1,542.75,26.2a41.94,41.94,0,0,1,40.31,0,37.49,37.49,0,0,1,14.31,14.37,41.55,41.55,0,0,1,5.22,20.89,41.55,41.55,0,0,1-5.22,20.89,37.56,37.56,0,0,1-14.31,14.37,41.94,41.94,0,0,1-40.31,0Zm35-7.67a27.16,27.16,0,0,0,10.45-11A34.76,34.76,0,0,0,592,61.46a34.7,34.7,0,0,0-3.8-16.64,27.37,27.37,0,0,0-10.39-11,31,31,0,0,0-30,0,27.37,27.37,0,0,0-10.39,11,34.81,34.81,0,0,0-3.8,16.64A34.88,34.88,0,0,0,537.47,78a27.16,27.16,0,0,0,10.45,11,30.8,30.8,0,0,0,29.86,0Z" transform="translate(-19.75 -20.92)"/><path class="cls-1" d="M657.89,101.09,639,68.73H626.55v32.36H616.22V21.94h25.55A34,34,0,0,1,656.93,25a21.34,21.34,0,0,1,9.25,8.29,23.05,23.05,0,0,1,3.07,11.92,23.29,23.29,0,0,1-4.71,14.42q-4.72,6.26-14.14,8.29l19.87,33.16ZM626.55,60.44h15.22q8.4,0,12.6-4.15t4.2-11.07q0-7-4.14-10.9t-12.66-3.86H626.55Z" transform="translate(-19.75 -20.92)"/><path class="cls-1" d="M695.59,30.35V56.8h28.84v8.52H695.59V92.57h32.25v8.52H685.26V21.83h42.58v8.52Z" transform="translate(-19.75 -20.92)"/><path class="cls-1" d="M753.84,92.69h27.7v8.4h-38V21.94h10.33Z" transform="translate(-19.75 -20.92)"/><path class="cls-1" d="M802.89,92.69H830.6v8.4h-38V21.94h10.33Z" transform="translate(-19.75 -20.92)"/><path class="cls-1" d="M888.39,83.49H853.87l-6.36,17.6h-10.9L865.23,22.4h11.92l28.5,78.69h-10.9Zm-2.95-8.41-14.31-40-14.3,40Z" transform="translate(-19.75 -20.92)"/><path class="cls-1" d="M980.37,101.09H970l-41.56-63v63H918.14V21.83h10.34L970,84.74V21.83h10.33Z" transform="translate(-19.75 -20.92)"/><path class="cls-1" d="M1044.75,83.49h-34.52l-6.36,17.6H993l28.61-78.69h11.93l28.5,78.69h-10.9Zm-3-8.41-14.31-40-14.31,40Z" transform="translate(-19.75 -20.92)"/></svg>